<svg width="239" height="76" viewBox="0 0 239 76" fill="none" xmlns="http://www.w3.org/2000/svg">
<path d="M61.5592 28.3524C62.0029 37.7 61.3041 48.0589 55.7823 56.0213C54.8878 57.3103 53.9998 58.6094 52.9748 59.8032C51.8483 61.1166 50.5785 62.3194 49.3499 63.5354C48.4667 64.4085 47.5631 65.2642 46.6323 66.0881C43.5287 68.836 40.0283 71.1194 36.3392 73.0243C35.3197 73.5509 34.284 74.0504 33.2367 74.5235C32.6689 74.779 30.7725 75.6744 30.6666 75.6162C19.0556 69.1816 5.92144 61.6299 2.15591 48.0843C1.13259 44.4019 0.470159 40.3247 0.372318 36.5015C0.204438 29.9282 0.666909 21.0277 1.53197 14.3549C1.7993 12.2885 2.20509 8.81458 2.59432 6.99478C2.73654 6.33227 2.73547 5.93434 3.12576 5.81158C12.0956 2.99431 21.0435 0.619953 30.549 0.618895C40.1598 0.618895 49.4456 2.36196 58.4379 5.68035C58.9966 5.88566 59.1228 6.65876 59.2351 7.32286C59.4644 8.6844 59.6596 10.6323 60.0322 13.6316C60.4621 17.1007 61.263 22.0982 61.5592 28.3524Z" fill="#ED1C24"/>
<path fill-rule="evenodd" clip-rule="evenodd" d="M35.0251 14.4486C35.51 14.2185 35.3897 14.3455 35.6784 14.4486C36.2318 13.6306 35.9072 14.1513 36.0372 13.6692C36.142 13.2802 36.4082 13.1786 36.6108 12.8791L36.2681 12.6643C35.8762 12.4579 35.9575 12.8162 35.9575 12.1404C35.6656 12.2939 35.3913 12.4283 35.2117 12.6945C35.117 12.5706 35.1181 12.8887 35.1181 12.4172C34.9262 12.5177 34.8973 12.5452 34.6524 12.6019C34.9176 12.2431 34.7989 12.596 34.932 12.2325C34.2974 12.3791 34.067 12.395 33.7189 12.6945C33.4837 12.5378 33.3377 12.5468 33.2527 12.2325C32.7758 12.2722 33.1265 12.3029 32.6929 12.4172C32.4577 12.2616 32.2722 12.123 31.9471 12.0484V11.8637C31.4504 11.9039 31.1253 12.1849 30.704 11.7092C30.6725 11.6737 30.4918 11.3652 30.4544 11.3096C30.1127 11.3996 30.2587 11.4065 29.9881 11.5864C29.9267 11.361 29.8801 11.2615 29.5797 11.0726C29.4241 10.9742 29.5315 11.0213 29.3851 10.9927L28.8558 11.0419C28.7948 11.0599 28.9932 11.0816 28.5884 11.125V11.4017C28.937 11.4822 28.6077 11.3895 28.8525 11.5171C28.8697 11.525 28.8926 11.5435 28.9092 11.5515C28.9258 11.5599 28.9482 11.5774 28.9643 11.5848C29.2396 11.707 29.2706 11.5864 29.708 11.5864C29.801 11.9309 29.8368 11.7335 29.8946 12.4172L29.2059 12.6601C29.1872 12.6654 29.161 12.6744 29.1429 12.6791L28.3104 12.7765C27.9559 12.7336 28.0848 12.6961 27.9356 12.4172C27.8773 12.4558 27.7838 12.5013 27.694 12.5474L27.4571 12.6823C27.1844 12.8908 27.6057 12.7611 27.1486 12.931C26.9781 12.995 26.9118 12.9712 26.723 12.9712C26.7177 13.2136 26.7161 13.2014 26.5102 13.4993C26.3178 13.7771 26.4963 13.7671 26.0697 13.8025C26.0697 14.4672 26.1339 14.0862 26.2568 14.5407L25.9515 14.6497C25.4885 14.7529 25.7104 14.7593 25.5447 15.2207C25.3645 15.7229 25.1501 15.3551 24.9507 16.2028C25.2586 16.4071 25.3169 16.415 25.3837 16.605C25.4351 16.75 25.4169 16.7865 25.4169 16.9415C24.5315 16.8685 24.9239 16.9907 24.6015 16.9135C24.1952 16.8172 24.0386 16.7569 23.5515 16.7569C23.5365 17.4241 23.5301 16.9754 23.3606 17.1495C23.3521 17.158 23.3312 17.177 23.3227 17.1871L23.1783 17.403C23.1927 16.7674 23.3184 17.2167 23.3649 16.6648C22.5833 16.4579 22.6111 15.6276 21.808 15.4863C21.1761 15.3747 21.8203 15.2948 21.1258 15.2794C20.9611 15.6202 21.0664 15.6985 20.7531 15.9261C20.8601 15.4826 20.8168 15.7821 20.7531 15.6488C20.4115 15.7387 20.5575 15.7462 20.2864 15.9261C20.2399 15.5054 20.1784 15.571 19.8202 15.7414C19.895 16.0197 19.8191 15.9441 20.0998 16.0181C19.9843 16.234 19.9399 16.2584 19.9132 16.5716L19.3534 16.1102C19.1187 16.5955 19.4181 16.4214 19.0038 16.6875L18.8829 16.7526C18.761 16.8262 18.73 16.86 18.6076 16.9415C18.7429 17.4421 18.853 17.0378 18.7006 17.403C18.3841 17.4374 18.3574 17.5421 18.1355 17.8173C18.1286 17.8258 18.1114 17.8464 18.104 17.8554C18.0901 17.8713 18.0446 17.9184 18.027 17.9358C17.9842 17.9787 17.9265 18.0274 17.8837 18.0665C17.7484 18.1882 17.5725 18.2454 17.5415 18.5274C17.518 18.7433 17.6484 18.8883 17.7677 19.0651C17.5608 19.3011 17.5902 19.2217 17.5811 19.6186L17.1726 19.4778C16.7347 19.382 16.9577 19.7064 16.8352 19.3418H16.3685C16.3685 19.971 16.1375 19.8149 16.2749 20.0848C16.3706 20.2721 16.6208 20.3176 16.8352 20.6346C16.6069 20.7277 16.7599 20.697 16.4621 20.6346C16.5032 21.1235 16.5759 20.7975 16.4621 21.2807C16.1819 21.0775 16.3273 21.132 15.9964 20.5404C15.6686 19.9546 15.6633 20.3329 15.7157 19.7112C15.3232 19.8149 15.3548 20.008 15.1714 20.2705L14.7084 20.7415C14.5512 20.9346 14.3636 21.2405 14.3486 21.477C14.3315 21.7442 14.5031 21.8908 14.5031 22.3887C14.6512 22.4612 14.3315 22.4829 14.7827 22.3887C14.7282 22.5919 14.764 22.4851 14.6501 22.6263C14.6341 22.6464 14.579 22.7025 14.5598 22.7221C14.4176 22.8666 14.5068 22.7719 14.4133 22.8539L14.2598 22.9814C14.2438 22.9936 14.2213 23.0095 14.2058 23.0216L14.0957 23.0999C13.8642 23.2931 13.9112 23.3137 13.8139 23.563L13.7653 23.6836C13.1991 25.1504 12.8574 25.1473 11.1974 25.7685C10.8867 25.8849 11.2171 25.8479 10.8536 25.8759C10.4034 25.9098 10.613 25.6579 10.2259 25.905C9.87838 26.1268 10.1564 26.1326 9.85272 26.3718C9.39239 26.7353 9.32769 26.2225 8.45301 27.111C8.29903 27.2676 8.08677 27.3317 7.86971 27.3301C7.38531 27.328 7.74887 27.0591 7.13349 27.4666C7.09233 26.9835 7.22278 27.2999 6.9469 27.1893C6.86777 27.4841 6.87954 27.4243 6.63199 27.6163C6.08184 28.0423 6.52186 27.5036 5.71881 28.3741C5.70063 28.3942 5.6477 28.4503 5.62953 28.4704L5.33386 28.8239C5.31729 28.8456 5.27398 28.9117 5.25634 28.9319C4.81846 29.4287 3.86893 29.225 3.86893 30.6982H3.58877C3.55723 30.3193 3.49574 30.1955 3.49574 29.6822C3.02044 29.9971 2.85523 30.7966 2.84293 31.3438C3.14287 31.4523 2.92741 31.1946 3.08406 31.5671C3.25301 31.9703 3.20756 32.3725 3.01776 32.7127C2.91672 32.8937 2.86485 33.0202 2.84293 33.2059V33.8748C2.86485 34.0917 2.92581 34.0198 3.13485 34.2859C3.40164 34.6256 3.21505 34.6283 3.62459 35.094C3.63742 35.1082 3.6572 35.1273 3.67004 35.1416C3.78392 35.2733 3.79942 35.3189 3.90796 35.4607C4.27526 35.9422 4.4287 35.6993 4.4287 36.791H4.24211C4.10952 36.228 3.77483 35.739 3.21559 35.5914C3.21559 36.4407 3.44121 35.8671 3.49574 36.5142C3.27386 36.3671 3.39844 36.4026 3.12256 36.3296C3.08085 36.8127 3.21184 36.4962 2.93596 36.6063C3.54012 37.5001 4.48751 37.8398 4.71848 38.9971C4.82007 39.504 5.35846 39.7786 5.54826 40.2073C5.65893 40.4581 5.51939 40.2729 5.70972 40.5084C5.7974 40.6179 5.88883 40.6703 5.98934 40.7862C6.20641 41.0349 6.24544 41.1815 6.31013 41.5767C6.63039 43.5431 7.82159 43.9506 7.93654 45.1126L7.95151 45.8074C7.88842 46.2064 8.00711 46.144 8.10762 46.5435C8.20012 46.9097 8.04774 47.0933 7.97343 47.4087C7.68899 47.4023 7.63339 47.3668 7.41365 47.316C7.41365 47.9907 7.39601 48.6014 7.99856 48.5876C8.77433 48.5696 9.04486 49.5385 10.3409 49.3216C10.7338 49.2554 11.4128 49.3401 11.7684 49.1343C12.1373 48.9205 12.1817 48.7109 12.3105 48.5617C12.3228 48.5474 12.342 48.5278 12.3554 48.5141L12.488 48.3686C12.5067 48.349 12.5596 48.2908 12.5778 48.2728L12.851 48.1161C13.0718 48.0839 13.4135 48.1077 13.5012 47.7886C13.5017 47.7859 13.5145 47.632 13.5204 47.6092C13.6519 47.0933 14.3978 47.1039 14.8779 46.9488L15.945 46.7885C16.0295 46.7932 16.052 46.8128 16.1675 46.8038C16.5032 46.7774 16.075 46.7461 16.4145 46.7509L16.5492 46.7864C16.561 46.7922 16.5834 46.8091 16.5962 46.8155C16.9202 46.9694 16.345 46.8985 16.9283 46.9467C17.0106 46.7451 17.1223 46.6324 17.7142 46.643C18.1189 46.6493 18.799 46.9298 19.0984 45.6783C19.1422 45.4947 19.1401 45.3745 19.2791 45.211C19.5144 44.9332 19.6657 45.0555 20.0282 44.8449C21.5086 43.986 20.9355 43.8405 22.6228 43.8119C23.2852 43.8008 23.8381 43.4923 24.4059 43.269C25.5056 42.8367 25.3907 42.5192 27.0935 42.5128C27.6795 42.5107 27.7394 42.4499 28.1666 42.3742C28.5783 42.3012 29.399 42.9568 29.708 43.1616C30.2474 43.0192 29.9603 42.7795 30.6201 43.1785C31.0104 43.4151 31.2847 43.3293 31.76 43.4389C31.8776 43.7199 31.7974 43.4606 31.76 43.9003C32.0519 43.8336 32.0567 43.7754 32.3197 43.9003C32.2353 44.1083 32.1326 44.0358 32.077 44.2379L32.2764 44.7687C32.501 44.9793 32.6828 44.7623 32.9223 45.0523C33.1121 45.2814 33.0688 45.4507 33.4174 45.8672C33.6238 46.1127 33.6895 46.4112 33.7189 46.762C33.7056 46.7684 33.6788 46.7525 33.674 46.7689C33.6692 46.7858 33.635 46.7758 33.6286 46.7779C33.6222 46.7811 33.5906 46.7879 33.5831 46.7922L33.3463 47.0388C33.9044 47.0853 33.758 47.4483 34.268 47.5611C34.4407 47.5992 34.2755 47.551 34.4519 47.6071C34.4541 47.6076 34.4867 47.6415 34.6524 47.6854L34.584 47.3213C34.5139 47.0367 34.6139 46.962 35.1293 46.3122C35.4747 45.8773 36.1104 45.8878 36.3676 45.4137C36.5269 45.1184 36.5659 44.939 36.7803 44.7142C37.0108 44.4723 36.8536 44.811 36.9846 44.4543C37.1006 44.5866 36.9477 44.3898 37.1113 44.6057C37.1941 44.7131 37.2032 44.7337 37.2642 44.8237C36.9851 44.8539 37.0263 44.866 36.8905 45.0084C37.0888 45.4164 37.0974 45.3661 36.8776 45.6333C36.5344 46.0513 36.389 46.6033 36.4098 47.0747C36.4333 47.6193 36.2863 47.5007 35.7714 47.5007C35.6907 47.8426 35.6169 47.759 35.5848 48.1474C35.9361 48.1183 36.0013 48.0251 36.2371 47.9632C36.636 47.8595 36.6814 48.1738 36.8947 47.6886L37.2642 46.5779L37.4422 46.8657C37.4518 46.8843 37.4636 46.9091 37.4732 46.9287L37.5379 47.052C37.547 47.07 37.5609 47.0943 37.57 47.1118C38.0924 48.1505 37.2225 48.1744 37.1706 48.7929C37.5828 48.7929 37.716 48.7109 38.1036 48.6083C38.1202 48.6231 38.1469 48.622 38.1544 48.6506C38.1624 48.6786 38.195 48.6834 38.2052 48.6924C38.7874 49.1813 39.406 49.8185 39.1467 50.6567C39.1413 50.6757 39.1285 50.7 39.1232 50.718L39.0959 51.1768C39.1665 51.4456 39.3584 51.5843 39.4958 51.7536L39.8808 52.3891C40.1695 52.6902 40.5902 52.5569 40.9206 52.9294L41.1821 53.2247C41.4601 53.1247 41.4564 53.022 41.752 53.1077L41.9605 53.1866C41.9851 53.194 42.0092 53.2003 42.0338 53.2083C42.2808 53.284 42.153 53.2035 42.3904 53.321C42.5674 53.4083 43.3367 53.8512 43.4207 54.0555C43.9452 54.0126 44.9364 52.7363 45.193 53.6866C45.656 53.6485 45.6651 53.3565 46.0324 53.3168L45.9667 53.4369C45.8437 53.711 45.9014 53.276 45.8458 53.7787L46.2923 54.1756C46.3136 54.1957 46.4072 54.2941 46.4233 54.3052L46.7162 54.4217C46.8114 54.4994 46.8376 54.6487 46.8718 54.7942C47.1723 54.7153 47.2643 54.4185 47.1514 54.1481C48.2475 54.1481 48.5683 53.0554 49.721 53.1046C50.4839 53.1374 51.0667 53.3559 51.6131 52.9315L51.8168 52.6648C51.9456 52.3473 51.8072 52.2685 51.8638 51.97L52.3637 50.6281C52.738 49.6322 53.1128 49.6174 53.3395 49.438C53.625 49.212 53.4191 49.366 53.4443 49.1967C53.4469 49.1798 53.4432 49.1501 53.4453 49.1327L53.4961 48.8882C53.6303 48.5289 53.725 48.2214 54.0003 48.0013C54.5563 47.5579 54.32 47.2457 55.1461 46.3657L55.678 46.0619C55.6973 46.0524 55.7213 46.0397 55.739 46.0291L56.3298 45.5984C56.3405 45.5804 56.3501 45.555 56.3592 45.5349C56.4517 45.3301 56.4025 45.2005 56.5538 44.9888C56.905 44.4988 57.437 44.0284 57.4424 43.2336C57.4461 42.7473 58.0556 41.8604 58.2326 41.2958C58.3213 41.0105 58.3871 40.874 58.525 40.6597C58.7876 40.2538 58.8266 39.8654 58.7635 39.3378C58.6876 38.6981 58.5282 38.3488 58.4384 37.807C58.3171 37.4186 58.2679 38.2017 58.5127 37.6953C58.5464 37.6255 58.556 37.6408 58.5737 37.4964C58.632 37.0074 58.5309 36.7957 58.6779 36.2803C58.8105 35.8157 58.8939 36.1687 58.6828 35.7242C58.5058 35.3517 58.5619 35.7596 58.5603 35.1792C58.5598 34.6542 58.5379 34.9246 58.3192 34.6987C58.0364 34.406 58.1722 34.4584 58.0594 34.1203C57.8808 33.5848 58.0086 34.0584 57.6765 33.6679C57.4573 33.4086 57.4552 32.8365 57.1392 32.6402L56.9788 32.59C56.6356 32.4942 56.4902 32.2084 56.2747 31.9137C56.1512 31.7454 56.1651 31.9015 56.0608 31.5824C55.8331 30.8898 56.3683 30.613 55.9197 29.7743C55.5529 29.906 55.9101 29.788 55.547 30.0516C55.3433 29.7499 55.276 29.8383 55.1733 29.4054C54.7526 29.516 54.9632 29.6494 54.6146 29.7743C54.2484 29.0906 54.5317 28.7472 54.2585 28.1894C53.8308 27.32 54.4515 28.118 53.6426 27.2285C53.5132 27.0867 53.4806 26.9676 53.4015 26.8205H53.7747C53.6956 26.4855 53.5469 26.1913 53.2464 26.0601C52.9711 25.9405 53.1139 26.0876 52.9187 25.9034C52.9085 25.8929 52.8925 25.8691 52.8813 25.8585L52.6797 25.6928C52.3482 25.4865 52.398 25.7426 52.2825 25.2499L52.1552 25.3134C52.1477 25.3161 52.1125 25.3319 52.1034 25.3346C51.8922 25.4002 51.9633 24.9785 51.774 24.7467C51.5436 24.4641 51.8473 24.9224 51.3666 24.68C51.1095 24.5504 51.3907 24.6795 51.2223 24.5663C51.0795 24.4705 51.1346 24.508 51.0319 24.4721L50.8673 24.425C50.0931 24.1255 50.23 23.9948 50.23 23.2195C49.5734 23.046 49.969 22.5459 50.0182 22.122C50.0979 21.4426 49.6841 21.3685 49.8568 20.6346C48.9366 20.6145 49.3034 19.7202 49.0425 18.7513L49.0061 17.8448C49.0457 17.6649 49.0179 17.9295 49.1104 17.5876L48.8618 17.4643C47.9882 16.9537 48.1667 16.542 47.8978 16.387L47.2573 16.5833C47.0611 16.7277 47.2627 16.678 46.9649 16.7569C46.3586 16.1869 46.6366 14.9857 46.4377 14.2322C46.3489 13.9015 46.2901 13.458 45.8458 13.3406C45.9127 13.058 45.9913 12.986 46.1255 12.7871C45.9062 12.6828 45.7849 12.7066 45.5657 12.6019C45.5657 12.0108 45.5587 11.5848 45.2877 11.1228C45.1118 10.8233 45.231 10.7895 44.8204 10.7556C44.7038 11.1853 44.753 10.935 44.3536 11.125C44.3536 11.6531 44.2884 12.0822 44.0141 12.5437C44.004 12.5606 43.9885 12.5823 43.9772 12.5997L43.9008 12.7077C43.712 12.9929 43.5447 13.248 43.5137 13.6179H43.7933C43.7586 14.0343 43.7618 13.8004 43.5827 14.0581C43.3367 14.4111 43.4704 14.0184 43.5271 14.5132C43.5827 14.9984 43.2036 15.0244 43.2469 15.5477C43.2742 15.8837 43.3907 15.7795 43.3843 16.1012C43.38 16.2854 43.2854 16.3663 43.2945 16.6246C43.3196 17.3188 43.5843 17.1431 43.2699 17.8057C42.94 18.4999 43.0705 19.1688 42.6374 19.8599C42.3332 20.3462 42.2717 20.6705 42.1578 20.8616C42.0258 21.0833 41.4494 21.3182 41.1008 21.2738C40.872 21.2457 40.3935 20.9298 40.1641 20.8108C39.9834 20.7155 39.8476 20.6547 39.753 20.4785C39.6562 20.298 39.7294 20.3647 39.6519 20.2086C39.4295 19.7556 38.8168 19.7953 38.3795 19.6217C37.9239 19.4418 37.7662 18.8439 36.7049 18.4179L36.1345 18.2438C36.1216 18.2375 35.7313 17.9686 35.695 17.9401L35.3394 17.5538C35.2379 17.4553 35.0449 17.3432 34.9058 17.2437L34.5038 16.996C34.1327 16.7965 34.1974 16.9955 34.1857 16.4801C34.391 16.4065 34.6193 16.0277 34.7989 15.7943C34.9048 15.6562 34.8289 15.7753 34.9074 15.6244L34.9882 15.4271C34.9962 15.4064 35.0064 15.3821 35.0144 15.3614C35.0705 15.2297 35.1529 15.0328 35.2117 14.9101C34.8224 14.7513 35.2277 14.9773 34.8385 14.8175C34.9871 14.5984 34.9513 14.7217 35.0251 14.4486Z" fill="#F5821F"/>
<path fill-rule="evenodd" clip-rule="evenodd" d="M44.4467 57.4722C44.4467 57.885 44.5643 58.2824 44.7172 58.5914C44.8418 58.8449 44.8979 58.7581 44.8867 59.1131C44.8674 59.7767 44.7958 59.9693 45.0807 60.5297C45.2353 60.8329 45.5357 61.1748 45.5657 61.5341C46.2302 61.5341 46.1319 61.506 46.219 61.7188C46.8317 61.705 46.4404 61.5865 46.7825 61.5335C46.8029 61.5309 47.415 61.6828 47.245 60.888C47.7096 61.0107 47.4947 61.2568 47.7898 61.2282C48.0406 61.2039 47.9213 61.0017 47.9518 60.7165C47.9871 60.3757 47.8358 60.6324 48.271 60.426L48.1774 59.8725C48.1774 59.2237 48.3309 59.8767 48.5506 59.9646L48.8254 58.0109C48.8548 57.8638 49.0216 57.9373 48.6442 57.3796C48.2122 57.4262 48.4624 57.4389 48.3683 57.4664L47.1269 57.6421C46.859 57.6939 46.6735 57.795 46.5109 57.786C46.026 57.7585 45.7795 57.1865 45.1011 57.0505C44.9444 57.0187 45.1011 57.078 44.861 56.9753C44.5306 56.8335 44.9385 56.9309 44.5397 56.825C44.5301 57.2516 44.4467 57.1351 44.4467 57.4722Z" fill="#F5821F"/>
<path fill-rule="evenodd" clip-rule="evenodd" d="M37.1706 48.7929H36.7039V48.5161C36.1954 48.5161 35.9345 48.5876 35.5667 48.686C34.8828 48.8707 35.1796 49.0247 35.3977 49.3469C36.7087 49.3469 36.2804 49.2347 37.022 49.1125C37.3219 49.0633 37.3422 49.1607 37.1706 48.7929Z" fill="#F5821F"/>
<path fill-rule="evenodd" clip-rule="evenodd" d="M48.3646 55.9947L48.7372 56.825C48.9072 56.7419 48.8543 56.754 49.1104 56.7334C49.1104 56.1646 49.1227 56.372 48.9163 56.0947C48.7885 55.9211 48.8003 55.8762 48.5506 55.8095C48.4784 56.0794 48.6982 55.9587 48.3646 55.9947Z" fill="#F5821F"/>
<path fill-rule="evenodd" clip-rule="evenodd" d="M44.167 55.9018C44.167 55.2403 44.2253 55.2959 43.8869 55.0715C43.7837 55.4525 43.8655 55.0789 43.7639 55.3721C43.6067 55.8229 43.5987 56.2002 44.167 55.9018Z" fill="#F5821F"/>
<path d="M27.9046 40.7534C28.7911 44.8518 29.3482 49.019 29.77 53.1872C30.164 57.0803 30.4137 60.9961 30.5682 64.9045C30.5907 65.4701 30.6885 66.0332 30.7024 66.5994C30.7099 66.9137 30.704 69.6331 30.1277 67.4778C29.9454 66.7936 29.7727 65.803 29.6946 65.0944C29.4209 62.6248 29.1498 60.1468 28.8472 57.6756C28.5296 55.089 28.1318 52.5125 27.6319 49.9545C27.3512 48.5205 27.0395 47.0918 26.6894 45.672C26.3242 44.1925 25.8762 42.7346 25.4019 41.2863C24.7176 39.1945 23.9846 37.0599 22.6854 35.2523C21.06 32.9901 18.6124 31.0719 15.6611 31.7307C14.9094 31.8984 14.2042 32.2 13.5086 32.5191C13.298 32.616 12.4682 33.1901 12.2447 32.8784C12.0966 32.6731 12.6238 32.2551 12.7543 32.1228C14.5239 30.3178 16.7283 28.3107 19.3689 28.0249C22.7634 27.6593 24.802 30.7766 25.8248 33.5118C26.7011 35.856 27.371 38.2865 27.9046 40.7534Z" fill="white"/>
<path d="M32.2946 32.1723C31.5418 44.5685 31.5418 51.41 31.8086 54.1532C31.8755 54.8422 31.7814 56.5244 31.5418 55.8137C30.9393 54.0236 30.4421 52.6991 29.831 44.5685C29.4941 40.0981 29.4882 37.1692 29.4882 32.376C29.4882 26.6388 30.1004 20.0661 31.884 15.9153C33.7654 11.5386 34.7401 10.5486 36.6066 8.80178C39.1392 6.43113 40.6897 6.41367 41.1917 6.18665C41.868 5.8808 40.0037 7.9657 39.344 9.14097C37.2829 12.8134 33.011 20.3836 32.2946 32.1723Z" fill="white"/>
<path d="M35.2379 33.2562C34.6615 35.9057 34.314 38.1933 34.0055 40.4369C32.8303 48.9919 32.9645 54.7709 32.9105 58.2856C32.8929 59.4545 32.8581 61.8501 33.0303 63.3836C33.1602 64.5377 33.3714 62.0146 33.4746 60.9283C34.2611 52.6717 35.8078 44.5141 37.9565 36.5021C39.5947 30.3939 41.2719 23.0618 45.0406 17.8263C46.6692 15.5641 49.7557 13.4125 52.7064 13.4125C55.2979 13.4125 56.2656 14.01 54.3414 12.7913C51.6388 11.0784 48.0678 10.8334 45.1625 12.1902C41.7697 13.775 40.0593 17.4141 38.8382 20.7325C38.1987 22.4718 37.5812 24.2435 37.0642 26.022C36.3713 28.4075 35.7661 30.83 35.2379 33.2562Z" fill="white"/>
<path d="M46.682 46.3085C46.2976 48.8998 40.1058 51.1223 31.0623 51.1223C22.0192 51.1223 15.0468 48.9459 15.0468 46.2958C15.0468 45.4454 15.7232 44.3321 17.1004 43.7357C17.9227 43.3791 18.9706 43.1018 20.3174 42.7107C21.4124 42.3927 18.9466 43.5653 18.4018 43.9844C17.9564 44.3257 17.511 45.2851 18.2301 46.0926C19.8908 47.959 26.3916 48.6326 31.0623 48.4807C37.74 48.2622 41.1334 47.6637 43.4335 46.0423C44.5167 45.2777 43.8126 44.2215 43.04 43.7045C42.1102 43.0833 39.7722 42.2027 40.7512 42.4297C42.7807 42.8981 44.5151 43.3558 45.709 44.1395C46.697 44.7866 46.7868 45.6026 46.682 46.3085Z" fill="white"/>
<path d="M89.8982 43.3812C88.0895 44.2438 85.7184 44.675 82.7981 44.675C78.9909 44.675 75.9936 43.5744 73.8123 41.3662C71.6245 39.159 70.5365 36.218 70.5365 32.5429C70.5365 28.6298 71.7608 25.4553 74.2143 23.0201C76.6673 20.5865 79.8543 19.3694 83.768 19.3694C86.1915 19.3694 88.2371 19.6715 89.8982 20.2774V25.5839C88.2371 24.6055 86.345 24.1155 84.2171 24.1155C81.8876 24.1155 80.0019 24.8378 78.5712 26.2824C77.1404 27.7259 76.4251 29.6838 76.4251 32.1535C76.4251 34.5172 77.0993 36.4048 78.453 37.8081C79.8009 39.212 81.6213 39.9163 83.9096 39.9163C86.091 39.9163 88.0895 39.3924 89.8982 38.3441V43.3812ZM104.259 19.7832V24.0461H102.184V39.9861H104.259V44.2496H94.5101V39.9861H96.5851V24.0461H94.5101V19.7832H104.259ZM138.489 44.2496H132.962V29.6082C132.962 28.0297 133.033 26.2824 133.168 24.3721H133.033C132.743 25.8744 132.483 26.9518 132.252 27.6159L126.435 44.2496H121.859L115.935 27.7852C115.776 27.3428 115.516 26.2014 115.155 24.3721H115.002C115.149 26.7835 115.226 28.8975 115.226 30.7205V44.2496H110.183V19.7832H118.377L123.455 34.2849C123.857 35.4433 124.153 36.6085 124.336 37.7843H124.442C124.75 36.428 125.081 35.2512 125.43 34.2495L130.503 19.7832H138.489V44.2496Z" fill="#ED1C24"/>
<path d="M79.5603 56.4653H78.4546L77.5521 54.11H73.9368L73.0867 56.4653H71.9768L75.2451 48.0686H76.2797L79.5603 56.4653ZM77.2233 53.2268L75.8862 49.6492C75.8434 49.5317 75.799 49.3438 75.7562 49.0877H75.7322C75.6937 49.3253 75.6466 49.5111 75.5964 49.6492L74.2694 53.2268H77.2233ZM87.6976 53.0692C87.6976 55.4255 86.6182 56.6045 84.4577 56.6045C82.3902 56.6045 81.3556 55.4716 81.3556 53.203V48.0686H82.3538V53.1395C82.3538 54.8593 83.0922 55.7213 84.5651 55.7213C85.9873 55.7213 86.6994 54.8895 86.6994 53.2268V48.0686H87.6976V53.0692ZM90.2356 56.1251V54.9651C90.3719 55.0831 90.5339 55.1879 90.7205 55.2816C90.9093 55.3758 91.1082 55.4557 91.3151 55.5192C91.5241 55.5827 91.7326 55.6335 91.9417 55.6695C92.1529 55.7028 92.3475 55.7213 92.5244 55.7213C93.1393 55.7213 93.5975 55.6086 93.9022 55.3832C94.2043 55.1599 94.3562 54.8355 94.3562 54.4159C94.3562 54.1878 94.3054 53.9925 94.2043 53.8248C94.1027 53.6565 93.9626 53.5031 93.7862 53.365C93.6076 53.2247 93.3965 53.093 93.1532 52.9654C92.9078 52.839 92.6463 52.7051 92.364 52.5659C92.0679 52.4167 91.7898 52.2659 91.5321 52.1135C91.2744 51.9621 91.0509 51.7939 90.8606 51.6102C90.6697 51.4256 90.5216 51.2181 90.412 50.9864C90.303 50.7551 90.2479 50.4831 90.2479 50.1709C90.2479 49.7878 90.3329 49.455 90.5035 49.1708C90.674 48.8882 90.8991 48.6559 91.175 48.4723C91.453 48.2876 91.7695 48.1527 92.1245 48.0622C92.4774 47.9722 92.8404 47.9262 93.2083 47.9262C94.0482 47.9262 94.6604 48.0262 95.0458 48.2262V49.3333C94.5427 48.9898 93.8958 48.8179 93.1083 48.8179C92.8896 48.8179 92.6725 48.8395 92.4533 48.884C92.2363 48.93 92.0417 49.0036 91.8706 49.1041C91.7005 49.2057 91.5626 49.3375 91.4551 49.4973C91.3477 49.6571 91.2947 49.8513 91.2947 50.0826C91.2947 50.2963 91.3348 50.4831 91.4166 50.6387C91.4979 50.7937 91.6177 50.9366 91.7754 51.0663C91.9337 51.1949 92.1288 51.3197 92.356 51.4399C92.5827 51.5616 92.8468 51.6933 93.143 51.8383C93.4494 51.987 93.7376 52.1436 94.0113 52.3077C94.285 52.4712 94.5246 52.6532 94.7299 52.8511C94.9362 53.0506 95.0988 53.2713 95.2207 53.5131C95.342 53.7549 95.4009 54.0322 95.4009 54.3444C95.4009 54.7577 95.3201 55.1091 95.156 55.3948C94.9913 55.6832 94.7678 55.9166 94.4903 56.0949C94.2102 56.2748 93.8873 56.4045 93.5242 56.4844C93.1591 56.5643 92.7757 56.6045 92.3699 56.6045C92.2363 56.6045 92.0695 56.595 91.8706 56.5722C91.6738 56.5505 91.4712 56.5204 91.2643 56.478C91.0595 56.4383 90.8649 56.3865 90.6799 56.3267C90.4954 56.2664 90.3474 56.1986 90.2356 56.1251ZM102.952 48.957H100.491V56.4653H99.4931V48.957H97.038V48.0686H102.952V48.957ZM111.212 56.4653H110.022L108.594 54.11C108.464 53.892 108.338 53.7063 108.215 53.5507C108.091 53.3972 107.966 53.2713 107.837 53.175C107.707 53.0766 107.569 53.0057 107.421 52.9612C107.273 52.9146 107.105 52.8929 106.918 52.8929H106.099V56.4653H105.1V48.0686H107.645C108.016 48.0686 108.361 48.1141 108.675 48.2067C108.989 48.2987 109.264 48.4358 109.495 48.6236C109.728 48.8126 109.909 49.0459 110.038 49.3232C110.171 49.6031 110.235 49.9291 110.235 50.3048C110.235 50.5964 110.191 50.8662 110.102 51.1102C110.012 51.3547 109.887 51.5727 109.723 51.7616C109.558 51.9537 109.359 52.1177 109.127 52.2516C108.894 52.3855 108.634 52.4913 108.345 52.5659V52.5876C108.489 52.6511 108.613 52.7215 108.718 52.8014C108.821 52.8824 108.923 52.9776 109.016 53.0877C109.111 53.1946 109.207 53.3184 109.3 53.4591C109.394 53.5973 109.497 53.756 109.61 53.9407L111.212 56.4653ZM106.099 48.957V52.0034H107.454C107.704 52.0034 107.935 51.9653 108.146 51.8923C108.359 51.8177 108.541 51.7118 108.695 51.5727C108.849 51.4346 108.971 51.2636 109.058 51.0631C109.146 50.862 109.188 50.6361 109.188 50.3868C109.188 49.9376 109.042 49.5878 108.746 49.3354C108.452 49.0835 108.024 48.957 107.466 48.957H106.099ZM119.789 56.4653H118.683L117.78 54.11H114.165L113.315 56.4653H112.205L115.474 48.0686H116.508L119.789 56.4653ZM117.452 53.2268L116.115 49.6492C116.073 49.5317 116.028 49.3438 115.985 49.0877H115.961C115.922 49.3253 115.875 49.5111 115.824 49.6492L114.498 53.2268H117.452ZM126.273 56.4653H121.852V48.0686H122.85V55.5753H126.273V56.4653ZM130.221 48.0686V48.912H129.389V55.6208H130.221V56.4653H127.559V55.6208H128.391V48.912H127.559V48.0686H130.221ZM139.038 56.4653H137.932L137.029 54.11H133.414L132.564 56.4653H131.454L134.722 48.0686H135.757L139.038 56.4653ZM136.7 53.2268L135.364 49.6492C135.321 49.5317 135.276 49.3438 135.234 49.0877H135.209C135.171 49.3253 135.124 49.5111 135.074 49.6492L133.746 53.2268H136.7Z" fill="#ED1C24"/>
<path d="M154.736 26.9383C154.69 28.2274 154.465 29.7101 152.855 29.7101C151.019 29.7101 150.778 27.7236 150.778 25.2773C150.778 22.832 151.019 20.845 152.855 20.845C154.224 20.845 154.615 21.8684 154.645 23.0691H156.03C155.97 20.9937 155.052 19.7782 152.855 19.7782C149.89 19.7782 149.393 22.6093 149.393 25.2773C149.393 27.9459 149.8 30.7769 152.855 30.7769C155.202 30.7769 156 28.9391 156.12 26.9383H154.736ZM157.231 30.57H158.616L159.414 27.6638H162.845L163.612 30.57H164.996L162.107 19.9851H160.331L157.231 30.57ZM161.174 21.4832H161.204L162.573 26.597H159.684L161.174 21.4832ZM166.62 30.57H167.943V22.0013H167.974L171.42 30.57H173.24V19.9851H171.917V28.8206H171.886L168.335 19.9851H166.62V30.57ZM179.122 21.1419H181.831V19.9851H175.105V21.1419H177.798V30.57H179.122V21.1419ZM183.695 30.57H189.429V29.4132H185.019V25.6186H189.006V24.4624H185.019V21.1419H189.247V19.9851H183.695V30.57ZM191.533 30.57H192.857V25.8562H194.648C195.324 25.8562 196.137 25.9451 196.243 27.3971L196.332 29.0428C196.363 29.5614 196.469 30.3472 196.694 30.57H198.288C197.973 30.3763 197.778 30.0805 197.718 28.909L197.627 27.1013C197.567 26.1965 197.04 25.4408 196.107 25.3371V25.308C197.357 25.0106 197.763 23.7951 197.763 22.6384C197.763 20.9636 196.694 19.9851 195.009 19.9851H191.533V30.57ZM192.857 21.0525H194.437C195.671 21.0525 196.378 21.7044 196.378 22.7431C196.378 24.7884 194.949 24.7884 194.167 24.7884H192.857V21.0525ZM201.537 25.5302H203.117C204.276 25.5302 205.224 26.0927 205.224 27.5453C205.224 28.5687 204.743 29.5027 203.343 29.5027H201.537V25.5302ZM200.213 30.57H203.133C205.374 30.57 206.608 29.6953 206.608 27.5453C206.608 26.2409 206.021 25.2482 204.698 24.9365V24.9074C205.675 24.6254 206.262 23.6623 206.262 22.6982C206.262 20.6376 204.908 19.9851 203.509 19.9851H200.213V30.57ZM201.537 21.0525H203.027C204.322 21.0525 204.878 21.6906 204.878 22.7876C204.878 24.4179 203.614 24.5508 203.057 24.5508H201.537V21.0525ZM208.773 27.4273C208.773 29.6064 209.767 30.7769 211.919 30.7769C214.025 30.7769 215.079 29.4577 215.079 27.4273V19.9851H213.755V27.4273C213.755 28.909 213.333 29.7101 211.919 29.7101C210.609 29.7101 210.098 28.9836 210.098 27.4273V19.9851H208.773V27.4273ZM217.575 30.57H218.899V25.8562H220.689C221.366 25.8562 222.18 25.9451 222.284 27.3971L222.375 29.0428C222.405 29.5614 222.51 30.3472 222.736 30.57H224.331C224.016 30.3763 223.819 30.0805 223.759 28.909L223.669 27.1013C223.609 26.1965 223.083 25.4408 222.149 25.3371V25.308C223.398 25.0106 223.805 23.7951 223.805 22.6384C223.805 20.9636 222.736 19.9851 221.05 19.9851H217.575V30.57ZM218.899 21.0525H220.479C221.712 21.0525 222.421 21.7044 222.421 22.7431C222.421 24.7884 220.99 24.7884 220.208 24.7884H218.899V21.0525ZM227.925 26.4187V30.57H229.25V26.4187L232.095 19.9851H230.71L228.588 24.9365L226.541 19.9851H225.082L227.925 26.4187ZM149.544 43.616H150.869V33.0306H149.544V43.616ZM153.485 43.616H154.809V35.0478H154.839L158.285 43.616H160.105V33.0306H158.782V41.8666H158.751L155.2 33.0306H153.485V43.616ZM168.606 35.7733C168.576 33.8318 167.643 32.8242 165.597 32.8242C162.873 32.8242 162.451 34.7657 162.451 35.7442C162.451 39.6282 167.522 37.8942 167.522 40.8876C167.522 42.0147 166.71 42.7556 165.656 42.7556C163.716 42.7556 163.64 41.4814 163.64 40.2955H162.316C162.316 42.5481 163.053 43.8234 165.566 43.8234C167.086 43.8234 168.907 43.126 168.907 40.6802C168.907 36.811 163.835 38.5905 163.835 35.6103C163.835 34.4842 164.498 33.891 165.612 33.891C166.876 33.891 167.282 34.6625 167.282 35.7733H168.606ZM174.382 34.1884H177.091V33.0306H170.364V34.1884H173.058V43.616H174.382V34.1884ZM178.955 43.616H180.279V33.0306H178.955V43.616ZM186.161 34.1884H188.87V33.0306H182.143V34.1884H184.836V43.616H186.161V34.1884ZM190.613 40.4728C190.613 42.6519 191.606 43.8234 193.759 43.8234C195.865 43.8234 196.918 42.5037 196.918 40.4728V33.0306H195.594V40.4728C195.594 41.9555 195.173 42.7556 193.759 42.7556C192.448 42.7556 191.938 42.0301 191.938 40.4728V33.0306H190.613V40.4728ZM202.68 34.1884H205.388V33.0306H198.661V34.1884H201.355V43.616H202.68V34.1884ZM207.252 43.616H212.985V42.4598H208.576V38.6641H212.564V37.5089H208.576V34.1884H212.804V33.0306H207.252V43.616ZM222.011 32.8242C219.047 32.8242 218.551 35.6558 218.551 38.3228C218.551 40.9924 219.047 43.8234 222.011 43.8234C224.977 43.8234 225.473 40.9924 225.473 38.3228C225.473 35.6558 224.977 32.8242 222.011 32.8242ZM222.011 33.891C223.848 33.891 224.089 35.877 224.089 38.3228C224.089 40.7696 223.848 42.7556 222.011 42.7556C220.176 42.7556 219.935 40.7696 219.935 38.3228C219.935 35.877 220.176 33.891 222.011 33.891ZM227.939 43.616H229.263V38.6641H233.251V37.5089H229.263V34.1884H233.491V33.0306H227.939V43.616ZM149.574 56.6615H150.899V47.4117H150.928L153.306 56.6615H154.63L157.008 47.4117H157.038V56.6615H158.362V46.0771H156.135L153.983 54.4676H153.953L151.802 46.0771H149.574V56.6615ZM160.016 56.6615H161.4L162.198 53.7569H165.628L166.396 56.6615H167.78L164.891 46.0771H163.115L160.016 56.6615ZM163.958 47.5747H163.988L165.358 52.689H162.468L163.958 47.5747ZM169.403 56.6615H170.728V48.0932H170.758L174.203 56.6615H176.024V46.0771H174.701V54.9131H174.67L171.119 46.0771H169.403V56.6615ZM177.648 56.6615H179.032L179.83 53.7569H183.26L184.028 56.6615H185.412L182.524 46.0771H180.747L177.648 56.6615ZM181.589 47.5747H181.62L182.989 52.689H180.1L181.589 47.5747ZM193.521 49.0129C193.505 48.4647 193.43 45.8697 190.346 45.8697C187.382 45.8697 186.885 48.7013 186.885 51.3693C186.885 54.2157 187.382 56.8689 190.18 56.8689C191.354 56.8689 192.211 56.1281 192.497 55.2243H192.528V56.6615H193.521V51.1619H190.195V52.2287H192.317C192.317 53.6378 192.182 55.8021 190.346 55.8021C188.51 55.8021 188.27 53.8162 188.27 51.3693C188.27 48.9235 188.51 46.9365 190.346 46.9365C191.655 46.9365 192.076 47.9012 192.137 49.0129H193.521ZM195.987 56.6615H201.72V55.5052H197.311V51.7106H201.298V50.5539H197.311V47.2339H201.539V46.0771H195.987V56.6615ZM203.855 56.6615H205.179V47.4117H205.209L207.586 56.6615H208.911L211.288 47.4117H211.318V56.6615H212.643V46.0771H210.416L208.264 54.4676H208.234L206.081 46.0771H203.855V56.6615ZM215.289 56.6615H221.023V55.5052H216.613V51.7106H220.601V50.5539H216.613V47.2339H220.842V46.0771H215.289V56.6615ZM223.127 56.6615H224.451V48.0932H224.481L227.927 56.6615H229.747V46.0771H228.424V54.9131H228.394L224.843 46.0771H223.127V56.6615ZM235.629 47.2339H238.338V46.0771H231.612V47.2339H234.306V56.6615H235.629V47.2339Z" fill="#ED1C24"/>
<path d="M143.284 19.8388V56.6453" stroke="#ED1C24" stroke-width="2.543" stroke-miterlimit="10"/>
</svg>
